# xmcd CD database file
#
# Track frame offsets:
#	150
#	18780
#	33576
#	47892
#	62574
#	75639
#	89612
#	104649
#	118676
#	132029
#	150093
#	163908
#	177239
#	190460
#	203652
#	218177
#	227025
#	241289
#	256286
#
# Disc length: 3594 seconds
#
# Revision: 0
# Processed by: cddbd v1.5.2PL0 Copyright (c) Steve Scherf et al.
# Submitted via: CDex 2.22
#
DISCID=000e0813
DTITLE=Various Artist - Vintage Jazz
DYEAR=2006
DGENRE=Jazz
TTITLE0=Ain't Misbehavin'
TTITLE1=On the Sunny SIde of the street
TTITLE2=Dinah
TTITLE3=Minnie the Moocher
TTITLE4=Angel eyes
TTITLE5=It Don't mean a thing
TTITLE6=Maple Leaf Rag
TTITLE7=One O Clock Jump
TTITLE8=Summertime
TTITLE9=Stardust
TTITLE10=Crazy Rhythm
TTITLE11=Take the "A" Train
TTITLE12=At the Jazz Band Ball
TTITLE13=I'm just wild about Harry
TTITLE14=Perdodo Street
TTITLE15=Flight of the bumblebee
TTITLE16=T'ain't what you do
TTITLE17=Stompin' at the savoy
TTITLE18=The Henderson Stomp
EXTD=YEAR: 2006
EXTT0=
EXTT1=
EXTT2=
EXTT3=
EXTT4=
EXTT5=
EXTT6=
EXTT7=
EXTT8=
EXTT9=
EXTT10=
EXTT11=
EXTT12=
EXTT13=
EXTT14=
EXTT15=
EXTT16=
EXTT17=
EXTT18=
PLAYORDER=
